<svg width="7" height="15" viewBox="0 0 7 15" fill="none" xmlns="http://www.w3.org/2000/svg">
<mask id="path-1-outside-1_121_2" maskUnits="userSpaceOnUse" x="0" y="-1" width="7" height="17" fill="black">
<rect fill="white" y="-1" width="7" height="17"/>
<path d="M6.14648 0.669922V9.6543C6.14648 11.0085 5.76237 12.1283 4.99414 13.0137C4.22591 13.8926 3.2526 14.332 2.07422 14.332C1.72917 14.332 1.32552 14.2572 0.863281 14.1074V10.2695C1.05859 10.3542 1.23763 10.3965 1.40039 10.3965C1.92122 10.3965 2.18164 9.97656 2.18164 9.13672V0.669922H6.14648Z"/>
</mask>
<path d="M6.14648 0.669922V9.6543C6.14648 11.0085 5.76237 12.1283 4.99414 13.0137C4.22591 13.8926 3.2526 14.332 2.07422 14.332C1.72917 14.332 1.32552 14.2572 0.863281 14.1074V10.2695C1.05859 10.3542 1.23763 10.3965 1.40039 10.3965C1.92122 10.3965 2.18164 9.97656 2.18164 9.13672V0.669922H6.14648Z" fill="#EF9B1B"/>
<path d="M6.14648 0.669922H6.84648V-0.0300781H6.14648V0.669922ZM4.99414 13.0137L5.52119 13.4744L5.52287 13.4724L4.99414 13.0137ZM0.863281 14.1074H0.163281V14.6165L0.647557 14.7734L0.863281 14.1074ZM0.863281 10.2695L1.14161 9.62724L0.163281 9.2033V10.2695H0.863281ZM2.18164 0.669922V-0.0300781H1.48164V0.669922H2.18164ZM5.44648 0.669922V9.6543H6.84648V0.669922H5.44648ZM5.44648 9.6543C5.44648 10.8677 5.10627 11.8163 4.46541 12.5549L5.52287 13.4724C6.41847 12.4402 6.84648 11.1493 6.84648 9.6543H5.44648ZM4.4671 12.553C3.83323 13.2782 3.05282 13.632 2.07422 13.632V15.032C3.45239 15.032 4.61859 14.507 5.52119 13.4743L4.4671 12.553ZM2.07422 13.632C1.82556 13.632 1.49765 13.5771 1.07901 13.4415L0.647557 14.7734C1.15339 14.9372 1.63278 15.032 2.07422 15.032V13.632ZM1.56328 14.1074V10.2695H0.163281V14.1074H1.56328ZM0.584956 10.9118C0.842329 11.0233 1.11729 11.0965 1.40039 11.0965V9.69648C1.35797 9.69648 1.27486 9.68499 1.14161 9.62724L0.584956 10.9118ZM1.40039 11.0965C1.88718 11.0965 2.31521 10.8794 2.58122 10.4505C2.81292 10.0768 2.88164 9.60629 2.88164 9.13672H1.48164C1.48164 9.50699 1.42015 9.66632 1.39144 9.71262C1.3834 9.72557 1.38848 9.71316 1.41078 9.70117C1.43143 9.69007 1.43514 9.69648 1.40039 9.69648V11.0965ZM2.88164 9.13672V0.669922H1.48164V9.13672H2.88164ZM2.18164 1.36992H6.14648V-0.0300781H2.18164V1.36992Z" fill="#010101" mask="url(#path-1-outside-1_121_2)"/>
</svg>
