<svg width="27" height="15" viewBox="0 0 27 15" fill="none" xmlns="http://www.w3.org/2000/svg">
<mask id="path-1-outside-1_121_2" maskUnits="userSpaceOnUse" x="0" y="-1" width="28" height="17" fill="black">
<rect fill="white" y="-1" width="28" height="17"/>
<path d="M6.14648 0.669922V9.6543C6.14648 11.0085 5.76237 12.1283 4.99414 13.0137C4.22591 13.8926 3.2526 14.332 2.07422 14.332C1.72917 14.332 1.32552 14.2572 0.863281 14.1074V10.2695C1.05859 10.3542 1.23763 10.3965 1.40039 10.3965C1.92122 10.3965 2.18164 9.97656 2.18164 9.13672V0.669922H6.14648ZM10.8633 9.625C11.5013 9.625 12.0482 9.85612 12.5039 10.3184C12.9661 10.7806 13.1973 11.3307 13.1973 11.9688C13.1973 12.6068 12.9694 13.1504 12.5137 13.5996C12.0579 14.0423 11.5078 14.2637 10.8633 14.2637C10.1927 14.2637 9.63932 14.0488 9.20312 13.6191C8.77344 13.1829 8.55859 12.6296 8.55859 11.959C8.55859 11.3079 8.7832 10.7578 9.23242 10.3086C9.68164 9.85286 10.2253 9.625 10.8633 9.625ZM19.9746 4.25391V14H16.0098V0.669922H21.0977C22.6471 0.669922 23.8483 1.05404 24.7012 1.82227C25.6517 2.68164 26.127 3.77214 26.127 5.09375C26.127 6.44141 25.5378 7.57747 24.3594 8.50195L26.6445 14H22.4844L20.5605 9.70312V6.27539H20.873C21.7064 6.27539 22.123 5.91732 22.123 5.20117C22.123 4.56966 21.6413 4.25391 20.6777 4.25391H19.9746Z"/>
</mask>
<path d="M6.14648 0.669922V9.6543C6.14648 11.0085 5.76237 12.1283 4.99414 13.0137C4.22591 13.8926 3.2526 14.332 2.07422 14.332C1.72917 14.332 1.32552 14.2572 0.863281 14.1074V10.2695C1.05859 10.3542 1.23763 10.3965 1.40039 10.3965C1.92122 10.3965 2.18164 9.97656 2.18164 9.13672V0.669922H6.14648ZM10.8633 9.625C11.5013 9.625 12.0482 9.85612 12.5039 10.3184C12.9661 10.7806 13.1973 11.3307 13.1973 11.9688C13.1973 12.6068 12.9694 13.1504 12.5137 13.5996C12.0579 14.0423 11.5078 14.2637 10.8633 14.2637C10.1927 14.2637 9.63932 14.0488 9.20312 13.6191C8.77344 13.1829 8.55859 12.6296 8.55859 11.959C8.55859 11.3079 8.7832 10.7578 9.23242 10.3086C9.68164 9.85286 10.2253 9.625 10.8633 9.625ZM19.9746 4.25391V14H16.0098V0.669922H21.0977C22.6471 0.669922 23.8483 1.05404 24.7012 1.82227C25.6517 2.68164 26.127 3.77214 26.127 5.09375C26.127 6.44141 25.5378 7.57747 24.3594 8.50195L26.6445 14H22.4844L20.5605 9.70312V6.27539H20.873C21.7064 6.27539 22.123 5.91732 22.123 5.20117C22.123 4.56966 21.6413 4.25391 20.6777 4.25391H19.9746Z" fill="#EF9B1B"/>
<path d="M6.14648 0.669922H6.84648V-0.0300781H6.14648V0.669922ZM4.99414 13.0137L5.52119 13.4744L5.52287 13.4724L4.99414 13.0137ZM0.863281 14.1074H0.163281V14.6165L0.647557 14.7734L0.863281 14.1074ZM0.863281 10.2695L1.14161 9.62724L0.163281 9.2033V10.2695H0.863281ZM2.18164 0.669922V-0.0300781H1.48164V0.669922H2.18164ZM5.44648 0.669922V9.6543H6.84648V0.669922H5.44648ZM5.44648 9.6543C5.44648 10.8677 5.10627 11.8163 4.46541 12.5549L5.52287 13.4724C6.41847 12.4402 6.84648 11.1493 6.84648 9.6543H5.44648ZM4.4671 12.553C3.83323 13.2782 3.05282 13.632 2.07422 13.632V15.032C3.45239 15.032 4.61859 14.507 5.52119 13.4743L4.4671 12.553ZM2.07422 13.632C1.82556 13.632 1.49765 13.5771 1.07901 13.4415L0.647557 14.7734C1.15339 14.9372 1.63278 15.032 2.07422 15.032V13.632ZM1.56328 14.1074V10.2695H0.163281V14.1074H1.56328ZM0.584956 10.9118C0.842329 11.0233 1.11729 11.0965 1.40039 11.0965V9.69648C1.35797 9.69648 1.27486 9.68499 1.14161 9.62724L0.584956 10.9118ZM1.40039 11.0965C1.88718 11.0965 2.31521 10.8794 2.58122 10.4505C2.81292 10.0768 2.88164 9.60629 2.88164 9.13672H1.48164C1.48164 9.50699 1.42015 9.66632 1.39144 9.71262C1.3834 9.72557 1.38848 9.71316 1.41078 9.70117C1.43143 9.69007 1.43514 9.69648 1.40039 9.69648V11.0965ZM2.88164 9.13672V0.669922H1.48164V9.13672H2.88164ZM2.18164 1.36992H6.14648V-0.0300781H2.18164V1.36992ZM12.5039 10.3184L12.0054 10.8098L12.0089 10.8133L12.5039 10.3184ZM12.5137 13.5996L13.0014 14.1017L13.0051 14.0981L12.5137 13.5996ZM9.20312 13.6191L8.70439 14.1104L8.71189 14.1178L9.20312 13.6191ZM9.23242 10.3086L9.72741 10.8036L9.73094 10.8L9.23242 10.3086ZM10.8633 10.325C11.3103 10.325 11.6787 10.4784 12.0054 10.8098L13.0024 9.82691C12.4177 9.23385 11.6923 8.925 10.8633 8.925V10.325ZM12.0089 10.8133C12.3435 11.1479 12.4973 11.5214 12.4973 11.9688H13.8973C13.8973 11.14 13.5888 10.4133 12.9989 9.82338L12.0089 10.8133ZM12.4973 11.9688C12.4973 12.4187 12.345 12.783 12.0223 13.1011L13.0051 14.0981C13.5938 13.5178 13.8973 12.7948 13.8973 11.9688H12.4973ZM12.0259 13.0975C11.7029 13.4113 11.3286 13.5637 10.8633 13.5637V14.9637C11.687 14.9637 12.413 14.6734 13.0014 14.1017L12.0259 13.0975ZM10.8633 13.5637C10.3573 13.5637 9.98653 13.4083 9.69436 13.1205L8.71189 14.1178C9.29212 14.6894 10.0281 14.9637 10.8633 14.9637V13.5637ZM9.70181 13.1279C9.414 12.8357 9.25859 12.4649 9.25859 11.959H7.85859C7.85859 12.7942 8.13287 13.5301 8.70444 14.1104L9.70181 13.1279ZM9.25859 11.959C9.25859 11.4884 9.41305 11.1179 9.7274 10.8036L8.73745 9.81362C8.15335 10.3977 7.85859 11.1274 7.85859 11.959H9.25859ZM9.73094 10.8C10.0491 10.4773 10.4133 10.325 10.8633 10.325V8.925C10.0372 8.925 9.31423 9.22845 8.7339 9.81719L9.73094 10.8ZM19.9746 4.25391V3.55391H19.2746V4.25391H19.9746ZM19.9746 14V14.7H20.6746V14H19.9746ZM16.0098 14H15.3098V14.7H16.0098V14ZM16.0098 0.669922V-0.0300781H15.3098V0.669922H16.0098ZM24.7012 1.82227L25.1706 1.30302L25.1697 1.30216L24.7012 1.82227ZM24.3594 8.50195L23.9273 7.95121L23.5089 8.2795L23.713 8.77061L24.3594 8.50195ZM26.6445 14V14.7H27.6935L27.2909 13.7313L26.6445 14ZM22.4844 14L21.8455 14.286L22.0308 14.7H22.4844V14ZM20.5605 9.70312H19.8605V9.85268L19.9217 9.98917L20.5605 9.70312ZM20.5605 6.27539V5.57539H19.8605V6.27539H20.5605ZM19.2746 4.25391V14H20.6746V4.25391H19.2746ZM19.9746 13.3H16.0098V14.7H19.9746V13.3ZM16.7098 14V0.669922H15.3098V14H16.7098ZM16.0098 1.36992H21.0977V-0.0300781H16.0098V1.36992ZM21.0977 1.36992C22.5354 1.36992 23.5476 1.7253 24.2327 2.34237L25.1697 1.30216C24.149 0.382769 22.7589 -0.0300781 21.0977 -0.0300781V1.36992ZM24.2317 2.34151C25.0303 3.06351 25.427 3.96297 25.427 5.09375H26.827C26.827 3.5813 26.2731 2.29977 25.1706 1.30302L24.2317 2.34151ZM25.427 5.09375C25.427 6.2005 24.958 7.14256 23.9273 7.95121L24.7914 9.05269C26.1175 8.01238 26.827 6.68231 26.827 5.09375H25.427ZM23.713 8.77061L25.9981 14.2687L27.2909 13.7313L25.0058 8.23329L23.713 8.77061ZM26.6445 13.3H22.4844V14.7H26.6445V13.3ZM23.1233 13.714L21.1994 9.41708L19.9217 9.98917L21.8455 14.286L23.1233 13.714ZM21.2605 9.70312V6.27539H19.8605V9.70312H21.2605ZM20.5605 6.97539H20.873V5.57539H20.5605V6.97539ZM20.873 6.97539C21.3738 6.97539 21.8801 6.87007 22.2668 6.53773C22.6738 6.18795 22.823 5.69717 22.823 5.20117H21.423C21.423 5.42132 21.364 5.46765 21.3543 5.47594C21.3244 5.50168 21.2056 5.57539 20.873 5.57539V6.97539ZM22.823 5.20117C22.823 4.67635 22.6052 4.2066 22.1454 3.90526C21.7372 3.63768 21.2137 3.55391 20.6777 3.55391V4.95391C21.1053 4.95391 21.3045 5.02801 21.378 5.07618C21.4052 5.09401 21.4085 5.10351 21.4088 5.10407C21.4104 5.10728 21.423 5.13293 21.423 5.20117H22.823ZM20.6777 3.55391H19.9746V4.95391H20.6777V3.55391Z" fill="#010101" mask="url(#path-1-outside-1_121_2)"/>
</svg>
