<svg width="60" height="60" viewBox="0 0 60 60" fill="none" xmlns="http://www.w3.org/2000/svg">
<path d="M30 0C46.5685 0 60 13.4315 60 30C60 46.5685 46.5685 60 30 60C13.4315 60 0 46.5685 0 30C0 13.4315 13.4315 0 30 0ZM30 3.75C15.5025 3.75 3.75 15.5025 3.75 30C3.75 44.4975 15.5025 56.25 30 56.25C44.4975 56.25 56.25 44.4975 56.25 30C56.25 15.5025 44.4975 3.75 30 3.75ZM30.0267 20.625L43.2849 33.8833L40.6333 36.5349L29.9874 25.8881L19.3392 36.5349L16.6875 33.8833L29.9458 20.625L29.9874 20.6644L30.0267 20.625Z" fill="#F0F0F0"/>
</svg>
